<?xml version="1.0" standalone="no"?>
<!DOCTYPE svg PUBLIC "-//W3C//DTD SVG 20010904//EN"
 "http://www.w3.org/TR/2001/REC-SVG-20010904/DTD/svg10.dtd">
<svg version="1.0" xmlns="http://www.w3.org/2000/svg"
 width="16.000000pt" height="16.000000pt" viewBox="0 0 16.000000 16.000000"
 preserveAspectRatio="xMidYMid meet">
<metadata>
Created by potrace 1.11, written by Peter Selinger 2001-2013
</metadata>
<g transform="translate(0.000000,16.000000) scale(0.001820,-0.001820)"
fill="#000000" stroke="none">
<path d="M4005 8779 c-27 -4 -70 -10 -95 -13 -25 -4 -99 -20 -165 -36 -445
-109 -887 -404 -1255 -836 -77 -90 -84 -98 -145 -179 -243 -319 -466 -713
-641 -1133 -35 -84 -64 -157 -64 -160 0 -4 -22 -23 -48 -42 -26 -19 -49 -37
-52 -40 -3 -4 -27 -23 -55 -44 -191 -144 -416 -379 -549 -574 -103 -152 -203
-383 -221 -509 -6 -48 -5 -53 12 -53 16 0 23 14 37 78 19 80 74 230 108 292
67 119 87 153 136 220 128 176 287 337 503 510 l112 89 65 -117 c120 -216 267
-417 405 -556 85 -84 250 -218 297 -239 8 -4 33 -18 55 -32 134 -82 304 -141
495 -170 78 -12 345 -13 410 -2 14 2 48 8 75 12 232 35 556 157 837 315 94 54
294 181 358 230 19 15 62 46 95 71 33 24 114 89 181 145 215 179 340 304 375
372 143 278 521 534 1005 678 101 30 264 72 309 80 17 3 46 9 65 14 19 4 58
12 85 16 28 4 52 8 55 9 26 6 130 18 148 16 12 -1 22 3 22 9 0 14 -405 420
-525 527 -295 262 -573 471 -825 622 -58 34 -112 66 -120 72 -58 36 -277 141
-385 184 -190 76 -422 142 -560 160 -27 3 -77 10 -109 14 -72 10 -361 10 -431
0z"/>
<path d="M7274 6395 c-4 -8 4 -52 16 -96 12 -45 23 -89 25 -98 2 -9 13 -59 25
-111 12 -52 24 -106 26 -120 3 -14 16 -79 29 -145 13 -66 26 -138 29 -160 4
-22 10 -62 16 -90 5 -27 11 -66 14 -85 3 -19 12 -82 20 -140 18 -125 29 -214
30 -254 1 -27 -3 -30 -69 -51 -325 -106 -648 -367 -875 -705 -24 -36 -51 -76
-60 -90 -91 -135 -262 -528 -310 -710 -5 -19 -18 -69 -29 -110 -23 -83 -76
-322 -85 -385 -4 -23 -8 -50 -10 -61 -2 -12 -7 -45 -11 -74 -4 -29 -8 -60 -10
-69 -3 -20 -13 -105 -20 -186 -3 -33 -8 -79 -10 -103 -23 -226 -23 -848 0
-1112 2 -25 6 -81 10 -125 11 -148 25 -284 42 -405 14 -102 8 -299 -11 -408
-2 -9 -6 -38 -10 -63 -4 -25 -9 -57 -11 -70 -2 -13 -6 -40 -9 -59 -3 -19 -8
-48 -11 -65 -31 -171 -37 -207 -33 -210 7 -7 278 118 454 209 627 326 1124
676 1520 1071 231 231 308 323 449 535 188 284 296 548 351 860 12 71 10 457
-3 535 -25 147 -61 285 -93 360 -4 11 -18 47 -31 80 -46 123 -163 342 -252
475 -59 86 -181 246 -261 340 -94 110 -349 368 -451 455 -103 88 -115 102
-116 138 -1 18 -3 41 -4 52 -11 92 -17 134 -20 155 -2 14 -7 45 -10 70 -13 98
-67 412 -91 530 -14 69 -28 136 -30 150 -3 14 -23 97 -44 184 -22 88 -40 160
-40 162 0 1 -7 5 -15 8 -9 3 -18 -1 -21 -9z"/>
<path d="M129 4200 c-1 -11 -2 -23 -3 -27 -1 -5 -6 -28 -10 -53 -5 -25 -10
-52 -11 -60 -2 -8 -8 -51 -15 -95 -6 -44 -13 -91 -15 -105 -2 -14 -6 -47 -10
-75 -3 -27 -7 -63 -9 -80 -2 -16 -7 -59 -11 -95 -3 -36 -8 -81 -10 -100 -14
-128 -20 -307 -19 -590 0 -292 4 -414 19 -547 14 -127 22 -190 30 -233 3 -14
7 -43 11 -65 4 -33 24 -133 49 -249 41 -190 129 -436 225 -627 280 -561 751
-913 1355 -1014 55 -9 111 -18 123 -20 136 -23 521 -23 712 0 158 19 137 16
390 60 19 3 64 13 100 21 36 9 76 18 90 20 14 3 86 21 160 40 120 31 160 49
181 78 4 5 62 -13 130 -39 177 -67 541 -183 631 -200 11 -2 27 -6 36 -9 9 -3
28 -7 42 -10 14 -3 36 -8 50 -11 32 -8 106 -24 145 -31 17 -3 46 -9 65 -14 19
-5 53 -11 75 -15 37 -5 79 -12 130 -21 11 -2 40 -7 65 -10 25 -3 56 -7 70 -10
14 -2 55 -6 91 -10 60 -5 67 -4 71 14 5 18 -1 20 -61 27 -36 4 -73 8 -81 10
-8 1 -37 5 -65 9 -79 10 -117 16 -165 26 -25 5 -61 12 -80 15 -52 7 -76 12
-221 46 -74 17 -142 32 -152 34 -170 37 -727 225 -727 246 0 3 10 14 21 25 29
26 119 139 155 194 108 169 164 310 199 505 7 38 7 222 0 255 -2 13 -7 42 -11
64 -10 67 -54 197 -97 281 -92 183 -236 361 -431 530 -32 28 -63 55 -69 60
-38 33 -291 215 -300 215 -2 0 -31 17 -63 39 -152 100 -523 291 -761 391 -54
23 -111 48 -128 55 -78 35 -391 153 -582 220 -72 26 -758 521 -1129 817 -96
76 -176 138 -179 138 -3 0 -6 -9 -6 -20z"/>
</g>
</svg>
